<svg width="1680" height="633" viewBox="0 0 1680 633" fill="none" xmlns="http://www.w3.org/2000/svg">
<path d="M-156.883 632.555C-76.3389 544.35 37.9478 477.972 199.774 459.934C613.528 413.815 670.477 390.252 941.88 135.21C977.725 101.526 1095.89 0.601662 1244.32 0.554704C1244.39 0.554682 1244.46 0.554682 1244.53 0.554704C1360.86 0.591508 1495.76 62.6122 1624.2 267.496C1698.57 386.13 1770.68 511.52 1836.88 632.555H-156.883Z" fill="#5739C1"/>
<path d="M1483.17 97.1487C1445.03 111.399 1403.06 121.122 1360.55 130.973C1292.3 146.785 1222.65 162.923 1165.16 198.638C1110.33 232.7 1062.82 285.171 1016.19 336.68C938.144 422.872 862.543 506.368 759.184 496.388C684.041 489.132 616.627 453.233 556.816 400.63C691.36 359.586 777.088 290.068 941.881 135.21C977.725 101.526 1095.89 0.601646 1244.32 0.554688H1244.53C1318.69 0.57815 1400.4 25.7916 1483.17 97.1487Z" fill="black" fill-opacity="0.05"/>
<path fill-rule="evenodd" clip-rule="evenodd" d="M1735.35 452.128C1736.21 453.617 1737.07 455.107 1737.93 456.596C1737.25 458.432 1736.58 460.272 1735.93 462.118C1738.69 464.624 1741.26 467.337 1743.59 470.24C1755.36 484.904 1759.63 503.748 1758.98 522.255C1758.64 531.95 1757.13 541.574 1754.88 551C1754.76 551.475 1754.65 551.957 1754.53 552.444C1752.87 559.52 1750.95 567.689 1744.16 571.387C1730.98 578.554 1716.74 566.194 1713.82 553.739C1711.8 545.162 1713 536.219 1714.5 527.662C1716.51 516.16 1719.06 504.745 1722.07 493.461C1724.76 483.321 1727.83 473.251 1731.28 463.314C1720.86 454.608 1707.78 449.061 1694.2 448.167C1675.65 446.946 1656.71 454.301 1643.67 467.522C1641.79 469.43 1639.86 472.019 1637.82 474.765C1631.44 483.312 1623.94 493.377 1613.29 489.108C1606.7 486.47 1601.11 479.709 1596.2 473.775C1594.89 472.189 1593.63 470.661 1592.41 469.287C1585.93 461.99 1579.67 454.505 1573.41 447.021L1572.8 446.291C1559.3 430.122 1545.71 413.862 1529.86 399.907C1506.89 379.678 1478.73 364.967 1448.9 364.564C1455.77 374.959 1461.97 385.766 1467.45 396.858C1484.07 430.573 1500.09 474.249 1483.36 510.937C1466.72 547.43 1420.64 562.016 1384.96 571.508C1363.82 577.132 1342.15 580.782 1320.33 582.341C1306.75 583.307 1285.76 583.788 1280.85 567.488C1278.57 559.9 1281.1 551.296 1283.33 543.666C1283.69 542.445 1284.04 541.248 1284.36 540.085C1287.32 529.401 1290.79 518.851 1294.74 508.49C1303.05 486.688 1313.5 465.709 1325.93 445.967C1345.26 415.305 1370.86 386.43 1404.17 370.765C1415.93 365.229 1428.59 361.643 1441.5 360.638C1427.77 340.928 1411.59 322.944 1393.12 307.551C1337.9 261.529 1261.86 243.001 1192.81 266.322C1157.37 278.294 1128.53 301.246 1106.16 330.954C1094.02 347.084 1083.76 364.543 1074.05 382.212C1070.17 389.264 1066.38 396.363 1062.59 403.461C1061.64 405.23 1060.7 406.999 1059.75 408.767C1059.04 410.092 1058.35 411.452 1057.64 412.822C1054.56 418.836 1051.36 425.075 1046.51 429.7C1034.8 440.854 1019.98 433.023 1007.56 426.459C1005.6 425.425 1003.7 424.423 1001.89 423.531C981.537 413.538 960.559 404.81 939.115 397.445C897.503 383.158 855.082 375.352 811.534 370.039C801.526 368.818 791.445 367.09 782.185 362.931C773.621 359.088 766.532 353.008 759.927 346.445C749.569 336.148 739.239 326.376 727.713 317.805C728.846 317.025 729.981 316.24 731.116 315.45C742.568 324.13 752.886 333.962 763.319 344.227C771.858 352.629 781.091 359.218 792.74 362.543C801.67 365.092 810.945 366.074 820.178 367.052C822.787 367.328 825.392 367.603 827.985 367.914C851.444 370.728 874.719 375.089 897.61 380.926C920.298 386.717 942.618 393.962 964.387 402.589C975.552 407.016 986.566 411.806 997.411 416.958C1000.36 418.358 1003.37 420.019 1006.44 421.709C1013.66 425.691 1021.18 429.835 1028.86 431.124C1042.06 433.344 1048.09 422.111 1053.42 412.179C1053.54 411.96 1053.65 411.742 1053.77 411.524C1055.61 408.11 1057.43 404.691 1059.26 401.272C1062.33 395.527 1065.39 389.782 1068.51 384.063C1078.5 365.734 1088.98 347.599 1101.37 330.769C1124.44 299.43 1154.44 275.086 1191.54 262.557C1225.82 250.977 1263.3 249.333 1298.67 256.655C1359.9 269.328 1411.17 309.492 1446.11 360.396C1449.06 360.307 1452.02 360.35 1454.99 360.547C1475.8 361.911 1495.45 370.126 1512.65 381.627C1537.81 398.449 1557.04 421.402 1576.28 444.362C1585.56 455.437 1594.84 466.514 1604.79 476.905C1605.16 477.295 1605.54 477.7 1605.93 478.114C1609.98 482.426 1614.88 487.64 1621.17 485.545C1625.45 484.122 1628.67 479.938 1631.32 476.484L1631.47 476.296C1636.86 469.304 1642.07 462.763 1649.28 457.515C1663.28 447.313 1681.13 442.425 1698.37 444.578C1710.9 446.148 1722.84 451.458 1732.68 459.352C1733.55 456.935 1734.43 454.527 1735.35 452.128ZM1754.29 531.775C1756.54 512.315 1754.18 491.648 1742.5 475.36C1740.13 472.059 1737.44 468.987 1734.49 466.186C1729.93 479.484 1726.03 493.016 1722.84 506.717C1720.46 516.918 1718.04 527.334 1717.02 537.772C1716.1 547.176 1716.81 558.394 1724.65 564.864C1733.18 571.901 1744.55 570.343 1748.42 559.449C1751.54 550.662 1753.22 541.013 1754.29 531.775ZM1481 506.357C1495.76 469.17 1478.1 425.477 1460.69 392.28C1455.71 382.772 1450.21 373.522 1444.22 364.603C1436.25 364.898 1428.19 366.237 1420.08 368.777C1386.38 379.352 1359.26 405.466 1339.01 433.548C1314.12 468.084 1296.2 508.354 1285.96 549.609C1283.37 560.025 1282.55 571.265 1294.14 576.189C1302.39 579.691 1311.87 578.985 1320.6 578.335L1321.15 578.294C1342.26 576.727 1363.22 573.185 1383.68 567.742C1419.12 558.311 1466.14 543.796 1481 506.357Z" fill="#7852FD"/>
</svg>
