<svg width="81" height="58" viewBox="0 0 81 58" fill="none" xmlns="http://www.w3.org/2000/svg">
<path d="M0 57.8355V29.0282C2.34141 29.2841 4.60319 29.6348 6.65337 30.0092C12.9209 31.1522 16.975 39.2401 13.9664 44.7669C10.9849 50.2411 5.72958 55.1847 0 57.8355Z" fill="#FFD54E"/>
<path d="M44.4346 0.587607C34.3268 1.65583 26.9021 12.8936 30.0266 24.8347C32.7469 35.2356 40.8852 38.9142 50.0458 43.0549C51.4359 43.6832 52.8494 44.3221 54.2712 44.9968C87.2222 60.6286 85.4637 42.681 68.6791 20.7498C67.4136 19.0958 66.1957 17.3979 64.994 15.7226C59.0237 7.39925 53.4539 -0.365584 44.4346 0.587607Z" fill="#FFD54E"/>
</svg>
