<svg width="25" height="24" viewBox="0 0 25 24" fill="none" xmlns="http://www.w3.org/2000/svg">
<path d="M0.5 12C0.5 5.37258 5.87258 0 12.5 0C19.1274 0 24.5 5.37258 24.5 12C24.5 18.6274 19.1274 24 12.5 24C5.87258 24 0.5 18.6274 0.5 12Z" fill="#2081E2"/>
<path d="M20.3236 14.0888V13.3208C20.3236 13.2488 20.2756 13.2008 20.1316 13.2728L16.4836 14.3288C16.4596 14.3288 16.4596 14.3288 16.4356 14.3528C16.1274 14.6791 15.8603 14.9233 15.717 15.0543C15.6706 15.0967 15.6372 15.1272 15.6196 15.1448C15.4036 15.3368 15.1156 15.4328 14.8276 15.4328H13.5076V14.0888H14.5636C14.5876 14.0888 14.6116 14.0888 14.6356 14.0648L14.7796 13.9448C14.8516 13.8968 14.9236 13.8248 14.9956 13.7528C15.0448 13.72 15.0828 13.676 15.1173 13.6361C15.1332 13.6176 15.1484 13.6 15.1636 13.5848C15.2128 13.552 15.2508 13.508 15.2853 13.4681C15.3012 13.4496 15.3164 13.432 15.3316 13.4168C15.3676 13.3688 15.4096 13.3208 15.4516 13.2728C15.4936 13.2248 15.5356 13.1768 15.5716 13.1288C15.6436 13.0568 15.6916 12.9848 15.7396 12.9128C15.7636 12.8768 15.7936 12.8408 15.8236 12.8048C15.8536 12.7688 15.8836 12.7328 15.9076 12.6968C15.9245 12.6463 15.9531 12.6076 15.9853 12.5641C15.999 12.5456 16.0133 12.5263 16.0276 12.5048C16.0756 12.4328 16.1236 12.3608 16.1476 12.3128C16.2436 12.1448 16.3396 11.9768 16.4116 11.8088C16.4483 11.7354 16.471 11.6621 16.4903 11.5995C16.4963 11.5801 16.502 11.5618 16.5076 11.5448C16.5196 11.4968 16.5316 11.4548 16.5436 11.4128C16.5556 11.3708 16.5676 11.3288 16.5796 11.2808C16.5808 11.2699 16.582 11.2591 16.5832 11.2484C16.6059 11.0454 16.6264 10.8619 16.6036 10.6568C16.6036 10.5848 16.6036 10.5128 16.5796 10.4648C16.5796 10.4408 16.5796 10.3928 16.5556 10.3448C16.5316 10.1288 16.4596 9.93678 16.3636 9.74478C16.3516 9.70878 16.3336 9.67278 16.3156 9.63678C16.2976 9.60078 16.2796 9.56478 16.2676 9.52878C16.2196 9.45678 16.1776 9.38478 16.1356 9.31278C16.0936 9.24078 16.0516 9.16878 16.0036 9.09678C15.9886 9.05159 15.964 9.01585 15.9419 8.98363C15.9288 8.96452 15.9166 8.94665 15.9076 8.92878C15.8716 8.88078 15.8296 8.82678 15.7876 8.77278C15.7456 8.71878 15.7036 8.66478 15.6676 8.61678C15.6316 8.58078 15.6016 8.53878 15.5716 8.49678C15.5416 8.45478 15.5116 8.41278 15.4756 8.37678C15.4396 8.34078 15.4096 8.30478 15.3796 8.26878C15.3496 8.23278 15.3196 8.19678 15.2836 8.16078C15.0436 7.89678 14.8036 7.65678 14.5876 7.46478C14.5721 7.43378 14.5466 7.4128 14.5176 7.38889C14.5016 7.37578 14.4846 7.36178 14.4676 7.34478C14.2996 7.20078 14.1316 7.05678 14.0116 6.96078C13.9396 6.91279 13.8916 6.86479 13.8436 6.81679C13.7716 6.76879 13.7236 6.72078 13.6996 6.69678C13.6996 6.67278 13.6756 6.67278 13.6756 6.67278L13.5316 6.62478V5.47278C13.5316 5.28078 13.4596 5.11278 13.3396 4.99278C13.2196 4.87278 13.0516 4.80078 12.8596 4.80078C12.4996 4.80078 12.1876 5.11278 12.1876 5.49678V6.28878L12.1156 6.26478L11.9236 6.21678L11.7556 6.16878L10.4356 5.80878C10.3876 5.78478 10.3396 5.85678 10.3636 5.90478L10.5796 6.28878L10.6516 6.43278C10.6636 6.46878 10.6816 6.50478 10.6996 6.54078C10.7176 6.57678 10.7356 6.61278 10.7476 6.64878C10.7596 6.68478 10.7776 6.71478 10.7956 6.74478C10.8136 6.77478 10.8316 6.80478 10.8436 6.84078C10.9156 6.98478 10.9876 7.15278 11.0596 7.32078L11.2036 7.68078C11.3236 7.96878 11.4436 8.30478 11.5396 8.64078C11.5798 8.7212 11.6032 8.81847 11.6238 8.90436C11.6278 8.92099 11.6317 8.9372 11.6356 8.95278L11.6596 9.00078C11.7076 9.16878 11.7316 9.31278 11.7556 9.48078C11.7796 9.57678 11.8036 9.69678 11.8036 9.79278C11.8036 9.85278 11.8096 9.91278 11.8156 9.97278C11.8216 10.0328 11.8276 10.0928 11.8276 10.1528C11.8516 10.2728 11.8516 10.3928 11.8516 10.4888C11.8516 10.7768 11.8276 11.0408 11.7796 11.2808L11.7076 11.4968C11.6987 11.5236 11.6864 11.5537 11.6733 11.5859C11.6512 11.6403 11.6267 11.7005 11.6116 11.7608C11.5876 11.8328 11.5636 11.8808 11.5396 11.9288C11.4196 12.2168 11.2756 12.5288 11.1076 12.7928C10.8676 13.2008 10.6516 13.5368 10.4836 13.7768C10.4596 13.8248 10.4356 13.8488 10.4116 13.8728C10.3636 13.9448 10.4116 14.0408 10.5076 14.0408H12.2116V15.3848H10.4836C10.0276 15.3848 9.59562 15.1448 9.37962 14.7128C9.28362 14.4968 9.23562 14.2568 9.25962 14.0408C9.25962 13.9928 9.21163 13.9208 9.13962 13.9208H5.61163C5.56363 13.9208 5.51562 13.9688 5.51562 14.0168V14.0888C5.51562 16.3208 7.31562 18.1208 9.52362 18.1208H15.7876C16.9449 18.1208 17.6086 17.061 18.2643 16.014C18.4516 15.7149 18.6383 15.4168 18.8356 15.1448C19.1716 14.6648 20.0116 14.2808 20.2516 14.1848C20.2996 14.1608 20.3236 14.1368 20.3236 14.0888Z" fill="white"/>
<path d="M6.4765 12.3367L6.4285 12.4087C6.3805 12.4807 6.4285 12.5767 6.5005 12.6007H9.7165C9.7645 12.6007 9.7885 12.5767 9.8125 12.5527C9.8605 12.5047 9.9085 12.4327 9.9325 12.3607C10.2205 11.9047 10.4605 11.4007 10.5565 11.0167C10.7485 10.1047 10.3165 8.66465 9.7885 7.48865C9.7405 7.39265 9.6445 7.39265 9.5965 7.46465L6.4765 12.3367Z" fill="white"/>
</svg>
