<svg width="22" height="22" viewBox="0 0 22 22" fill="none" xmlns="http://www.w3.org/2000/svg">
<g id="icon/24x24/filled/image">
<g id="Image 2">
<path id="Image 2_2" fill-rule="evenodd" clip-rule="evenodd" d="M7.12199 3.3515C4.83132 3.3515 3.35132 4.92217 3.35132 7.34528V14.6466C3.35132 15.3266 3.47754 15.9337 3.69354 16.4591C3.70288 16.4479 3.90647 16.1998 4.17201 15.8762C4.69065 15.2442 5.44559 14.3242 5.45088 14.3195C6.06599 13.6173 7.22066 12.5702 8.73621 13.2039C9.06831 13.3416 9.36351 13.5303 9.63525 13.7039C9.66172 13.7208 9.68796 13.7376 9.71399 13.7542C10.2233 14.0946 10.5229 14.2546 10.834 14.2279C10.9629 14.2102 11.0838 14.1719 11.1984 14.1008C11.631 13.8342 12.7524 12.2451 13.0883 11.7693C13.1375 11.6996 13.1699 11.6537 13.1807 11.6395C14.1495 10.3773 15.6429 10.0395 16.8873 10.7862C17.0544 10.8857 18.2518 11.7222 18.6482 12.0582V7.34528C18.6482 4.92217 17.1682 3.3515 14.8695 3.3515H7.12199ZM14.8697 2.11145C17.8715 2.11145 19.8884 4.21101 19.8884 7.34523V14.6466C19.8884 14.7254 19.8801 14.7993 19.8718 14.8732C19.866 14.9251 19.8602 14.977 19.8573 15.0306C19.8554 15.0629 19.8544 15.0953 19.8535 15.1277C19.8523 15.1709 19.851 15.2141 19.8475 15.2572C19.8457 15.2741 19.8424 15.2903 19.839 15.3066C19.8357 15.3228 19.8324 15.339 19.8306 15.3559C19.8013 15.635 19.7559 15.9017 19.6928 16.1603C19.6779 16.225 19.6607 16.2873 19.6433 16.3502L19.6395 16.3639C19.5684 16.6146 19.4848 16.8537 19.3844 17.0821C19.3668 17.1205 19.3482 17.158 19.3297 17.1954C19.3173 17.2204 19.3049 17.2453 19.2928 17.2706C19.1844 17.4883 19.067 17.6972 18.931 17.891C18.9059 17.9269 18.8791 17.9605 18.8523 17.9942C18.8346 18.0164 18.8168 18.0387 18.7995 18.0617C18.6582 18.2448 18.5106 18.4199 18.3435 18.579C18.3101 18.6107 18.2741 18.6398 18.238 18.6688C18.2155 18.6869 18.1929 18.7051 18.171 18.7239C17.9995 18.8715 17.8244 19.0128 17.6315 19.1337C17.5894 19.1601 17.5447 19.1823 17.5001 19.2044C17.4713 19.2187 17.4425 19.233 17.4146 19.2483C17.2182 19.3568 17.0199 19.4626 16.8039 19.5443C16.752 19.5641 16.6967 19.5784 16.6412 19.5927C16.6018 19.6029 16.5623 19.613 16.5239 19.6252C16.5047 19.6312 16.4855 19.6372 16.4663 19.6431C16.2734 19.7032 16.081 19.763 15.8733 19.7986C15.7529 19.8197 15.6252 19.8278 15.4973 19.8359C15.442 19.8394 15.3867 19.8429 15.3319 19.8475C15.2731 19.8519 15.2153 19.859 15.1575 19.8661C15.0635 19.8776 14.9693 19.8892 14.8697 19.8892H7.12215C6.78793 19.8892 6.46882 19.8555 6.16037 19.8048L6.12748 19.7995C4.92482 19.5923 3.9266 19.0119 3.22704 18.1363C3.22218 18.1363 3.22027 18.1331 3.21773 18.1287C3.21609 18.1259 3.21418 18.1226 3.21104 18.1195C2.50793 17.2341 2.1106 16.0439 2.1106 14.6466V7.34523C2.1106 4.21101 4.12926 2.11145 7.12215 2.11145H14.8697ZM10.111 7.90223C10.111 9.10663 9.10323 10.1112 7.89306 10.1112C6.82933 10.1112 5.92235 9.33396 5.71908 8.32772C5.68548 8.17674 5.66653 8.02147 5.66653 7.86106C5.66653 6.64808 6.65189 5.66671 7.86981 5.66671C8.48996 5.66671 9.05155 5.9275 9.45379 6.34355C9.85775 6.74501 10.111 7.29832 10.111 7.90223Z" fill="white"/>
</g>
</g>
</svg>
