<svg width="414" height="457" viewBox="0 0 414 457" fill="none" xmlns="http://www.w3.org/2000/svg">
<g filter="url(#filter0_d)">
<path d="M1158.51 155.703C1121.36 169.12 1080.6 171.046 1042.28 161.409C1022.66 156.473 1005.24 147.986 987.484 138.562C979.252 134.196 970.699 130.435 961.384 129.246C951.313 127.959 941.163 129.241 931.231 130.986C888.013 138.585 845.148 143.465 801.17 141.898C778.505 141.088 755.889 138.836 733.507 135.188C718.825 132.795 698.217 125.956 689.015 142.278C684.967 149.458 684.012 158.245 682.435 166.203C680.48 176.078 678.56 185.964 676.493 195.82C672.34 215.587 667.615 235.309 660.692 254.308C647.937 289.303 627.029 319.705 596.604 341.508C537.324 383.982 459.167 388.383 392.926 360.363C370.769 350.992 350.042 338.472 331.167 323.58C343.232 318.854 354.294 311.729 363.939 302.995C391.248 278.274 407.34 243.136 416.898 208.117C423.048 185.57 426.939 162.417 428.535 139.099C429.296 128.018 429.543 116.895 429.265 105.792C429.046 97.0292 429.737 86.1693 424.641 78.5036C415.208 64.3092 395.256 70.8893 382.548 75.7762C362.122 83.629 342.448 93.4434 323.859 104.994C292.485 124.489 252.636 151.899 247.338 191.726C242.016 231.766 270.067 268.96 295.796 296.43C304.262 305.468 313.344 314.018 322.945 321.98C294.286 330.285 263.053 324.392 235.181 311.698C215.662 302.809 197.685 290.963 179.789 279.231C171.624 273.88 163.455 268.53 155.129 263.424C147.697 258.868 138.336 251.283 129.375 250.511C114.262 249.207 111.702 270.283 106.586 280.056C97.9613 296.528 81.9807 309.097 63.8772 313.331C50.6228 316.432 36.4926 314.926 23.985 309.619C24.3884 299.09 24.3912 288.544 24.019 278.039C23.6054 266.349 22.7286 254.662 21.3006 243.053C20.241 234.414 18.781 225.494 14.3559 217.86C7.93177 206.773 -9.29668 199.077 -19.8134 209.785C-25.6157 215.692 -24.5954 224.869 -24.1335 232.45C-23.5435 242.141 -22.1834 251.805 -19.6871 261.198C-14.9195 279.125 -5.34548 295.942 10.1837 306.569C13.2575 308.672 16.5072 310.525 19.8824 312.12C19.5498 319.417 19.0217 326.701 18.2975 333.969C16.3451 353.6 13.4857 374.086 3.52966 391.462C-6.12551 408.326 -23.92 421.753 -44.0676 420.353C-46.5969 420.176 -47.3064 424.092 -44.7623 424.268C-27.0437 425.497 -10.7361 416.572 0.361344 403.073C13.1012 387.578 18.021 367.214 20.6875 347.756C22.2302 336.511 23.2512 325.181 23.8008 313.82C35.5184 318.518 48.4921 320.132 60.9382 317.981C78.0546 315.022 93.7135 305.135 104.144 291.274C109.508 284.145 112.596 276.356 115.713 268.085C117.266 263.96 119.127 258.877 122.876 256.218C128.812 252.007 135.693 256.699 141.072 259.724C179.626 281.423 214.033 311.165 256.983 324.198C276.79 330.209 297.99 332.355 318.297 327.599C321.195 326.922 324.04 326.101 326.842 325.154C375.083 363.76 435.835 387.316 498.126 381.612C534.101 378.323 569.481 365.827 598.916 344.736C630.766 321.916 652.384 289.839 665.328 253.079C672.281 233.339 677.034 212.9 681.25 192.423C683.35 182.229 685.313 172.009 687.357 161.806C689.607 150.56 691.918 137.516 705.488 135.759C716.487 134.333 728.867 138.554 739.703 140.174C751.58 141.951 763.515 143.333 775.488 144.322C798.831 146.247 822.298 146.687 845.695 145.626C869.299 144.55 892.84 141.947 916.107 137.808C927.783 135.729 939.486 132.888 951.397 132.685C963.512 132.477 974.266 136.102 984.884 141.667C1003.32 151.327 1021.28 160.218 1041.59 165.318C1061.35 170.28 1081.88 172.219 1102.22 171.154C1121.93 170.125 1141.37 166.114 1159.92 159.421C1162.33 158.556 1160.92 154.833 1158.51 155.703ZM9.73244 301.334C-6.18927 289.126 -14.4639 270.005 -17.98 250.697C-19.6474 241.531 -20.85 231.792 -20.4193 222.46C-19.8892 210.891 -9.46211 206.083 0.748684 210.343C10.1298 214.262 14.0752 224.807 15.9331 234.089C17.9962 244.391 18.7195 255.078 19.4125 265.549C20.3477 279.612 20.5641 293.717 20.0649 307.794C16.4293 305.973 12.9611 303.812 9.73244 301.334ZM303.586 298.845C277.262 272.1 247.633 235.369 250.931 195.424C254.247 155.203 295.02 127.591 326.176 108.226C344.172 97.0465 363.197 87.5426 382.944 79.8883C391.251 76.6674 400.301 73.0624 409.396 74.0368C421.92 75.3785 424.414 86.389 424.972 97.1267C427.181 139.651 421.769 183.468 408.007 223.83C396.812 256.647 378.469 289.579 349.297 309.537C342.279 314.334 334.952 317.967 327.415 320.572C319.079 313.764 311.124 306.501 303.586 298.845Z" fill="#F7CD45"/>
</g>
<defs>
<filter id="filter0_d" x="-75.2146" y="0.401245" width="1263.43" height="456.198" filterUnits="userSpaceOnUse" color-interpolation-filters="sRGB">
<feFlood flood-opacity="0" result="BackgroundImageFix"/>
<feColorMatrix in="SourceAlpha" type="matrix" values="0 0 0 0 0 0 0 0 0 0 0 0 0 0 0 0 0 0 127 0" result="hardAlpha"/>
<feOffset dx="12" dy="24"/>
<feComposite in2="hardAlpha" operator="out"/>
<feColorMatrix type="matrix" values="0 0 0 0 0 0 0 0 0 0 0 0 0 0 0 0 0 0 0.06 0"/>
<feBlend mode="normal" in2="BackgroundImageFix" result="effect1_dropShadow"/>
<feBlend mode="normal" in="SourceGraphic" in2="effect1_dropShadow" result="shape"/>
</filter>
</defs>
</svg>
