<svg width="1680" height="533" viewBox="0 0 1680 533" fill="none" xmlns="http://www.w3.org/2000/svg">
<g filter="url(#filter0_d)">
<path d="M1934.07 248.52C1873.06 264.298 1808.05 261.283 1748.64 240.263C1718.22 229.499 1691.83 213.42 1665.03 195.803C1652.61 187.641 1639.59 180.39 1624.97 177.114C1609.17 173.569 1592.86 174.092 1576.83 175.385C1507.07 181.017 1438.27 182.381 1368.67 173.339C1332.8 168.675 1297.22 161.726 1262.22 152.596C1239.26 146.607 1207.56 132.67 1190.51 157.228C1183.02 168.032 1180.19 181.85 1176.5 194.256C1171.93 209.652 1167.41 225.073 1162.66 240.422C1153.12 271.207 1142.67 301.833 1128.85 330.984C1103.38 384.677 1065.65 429.859 1014.09 459.962C913.629 518.605 788.863 513.949 687.847 459.565C654.058 441.377 623.009 418.397 595.254 391.927C615.117 386.216 633.744 376.547 650.361 364.109C697.41 328.906 728.198 275.482 748.591 221.273C761.717 186.371 771.343 150.169 777.352 113.363C780.21 95.8725 782.26 78.2392 783.472 60.5582C784.43 46.6054 787.145 29.4559 780.194 16.5185C767.33 -7.43687 734.666 0.0432224 713.758 5.91307C680.152 15.3445 647.448 28.0043 616.209 43.5832C563.484 69.8786 496.121 107.485 481.777 169.968C467.36 232.783 506.366 296.05 543.13 343.525C555.227 359.143 568.377 374.08 582.437 388.159C535.689 397.083 486.97 383.067 444.6 358.747C414.928 341.716 388.146 320.22 361.475 298.914C349.307 289.197 337.132 279.48 324.671 270.128C313.548 261.783 299.813 248.338 285.697 245.776C261.892 241.453 254.688 274.554 245.109 289.316C228.959 314.199 201.71 331.785 172.331 335.815C150.821 338.765 128.607 334.268 109.536 323.972C111.745 307.306 113.32 290.553 114.294 273.808C115.379 255.176 115.727 236.479 115.189 217.823C114.793 203.941 113.803 189.552 107.913 176.765C99.3633 158.196 73.1513 143.402 54.8559 158.847C44.7622 167.366 45.0156 182.096 44.6197 194.208C44.1131 209.692 44.8335 225.247 47.3985 240.541C52.2989 269.731 64.9972 297.875 88.0742 317.071C92.6421 320.87 97.5266 324.297 102.649 327.335C101.034 338.876 99.11 350.37 96.8775 361.809C90.8529 392.705 83.2608 424.822 64.8626 450.943C47.0185 476.294 16.7611 494.975 -15.0242 489.748C-19.0142 489.089 -20.7242 495.205 -16.7105 495.863C11.2432 500.456 38.4685 488.708 58.1018 468.918C80.6404 446.2 91.4862 414.582 98.6191 384.066C102.744 366.433 106.053 348.586 108.618 330.619C126.525 339.828 146.887 344.326 166.971 342.763C194.593 340.614 220.931 327.24 239.559 306.775C249.138 296.249 255.202 284.334 261.385 271.659C264.465 265.337 268.178 257.539 274.527 253.875C284.581 248.068 294.809 256.548 302.9 262.156C360.889 302.372 411.097 354.749 477.359 381.853C507.917 394.355 541.262 400.922 574.219 396.393C578.922 395.751 583.561 394.87 588.152 393.783C659.006 462.302 751.971 508.777 851.737 508.999C909.354 509.134 967.399 494.555 1017.28 465.435C1071.26 433.928 1110.37 386.192 1136.4 329.723C1150.38 299.398 1160.97 267.637 1170.71 235.734C1175.57 219.853 1180.21 203.91 1184.97 188.005C1190.22 170.475 1195.83 150.097 1217.64 149.328C1235.32 148.701 1254.35 157.252 1271.32 161.44C1289.92 166.033 1308.66 170.007 1327.53 173.363C1364.31 179.899 1401.51 184.095 1438.82 185.895C1476.46 187.704 1514.23 187.077 1551.8 183.968C1570.65 182.405 1589.65 179.637 1608.6 181.088C1627.87 182.564 1644.41 189.925 1660.44 200.348C1688.27 218.441 1715.47 235.242 1746.96 246.371C1777.6 257.198 1809.91 263.338 1842.38 264.678C1873.82 265.979 1905.29 262.505 1935.75 254.636C1939.7 253.621 1938.02 247.497 1934.07 248.52ZM88.1375 308.686C64.6726 286.92 54.381 255.31 51.6735 224.113C50.391 209.303 49.9318 193.653 52.006 178.891C54.571 160.592 71.845 154.508 87.425 162.797C101.738 170.42 106.433 187.76 108 202.783C109.742 219.457 109.299 236.543 108.84 253.28C108.23 275.76 106.472 298.2 103.583 320.49C98.0808 317.055 92.8954 313.105 88.1375 308.686ZM555.14 348.522C517.322 302.111 475.744 239.343 486.93 176.377C498.188 112.974 567.047 75.1853 619.407 49.0644C649.649 33.9852 681.276 21.722 713.774 12.5048C727.446 8.6259 742.353 4.24731 756.65 7.1505C776.339 11.1483 778.658 29.0117 777.946 46.1533C775.12 114.037 759.999 182.842 732.132 244.911C709.467 295.376 675.433 344.96 626.136 372.319C614.277 378.895 602.102 383.575 589.744 386.589C577.52 374.532 565.97 361.809 555.14 348.522Z" fill="#F7CD45"/>
</g>
<defs>
<filter id="filter0_d" x="-19" y="0" width="1969" height="533" filterUnits="userSpaceOnUse" color-interpolation-filters="sRGB">
<feFlood flood-opacity="0" result="BackgroundImageFix"/>
<feColorMatrix in="SourceAlpha" type="matrix" values="0 0 0 0 0 0 0 0 0 0 0 0 0 0 0 0 0 0 127 0" result="hardAlpha"/>
<feOffset dx="12" dy="24"/>
<feComposite in2="hardAlpha" operator="out"/>
<feColorMatrix type="matrix" values="0 0 0 0 0 0 0 0 0 0 0 0 0 0 0 0 0 0 0.06 0"/>
<feBlend mode="normal" in2="BackgroundImageFix" result="effect1_dropShadow"/>
<feBlend mode="normal" in="SourceGraphic" in2="effect1_dropShadow" result="shape"/>
</filter>
</defs>
</svg>
