<svg width="209" height="211" viewBox="0 0 209 211" fill="none" xmlns="http://www.w3.org/2000/svg">
<path d="M0 58.6728C0 21.9473 66.9324 0 103.652 0C140.377 0 179.928 59.1065 179.928 95.832C179.928 132.557 140.377 132.991 103.652 132.991C66.9324 132.991 0 95.3982 0 58.6728Z" fill="white" fill-opacity="0.3"/>
<path d="M12.6636 72.5391C12.6636 72.5391 8.6995 26.4215 42.9308 26.06C77.1561 25.6985 44.0092 32.9038 38.2497 36.5065C32.4783 40.1092 14.1035 46.959 12.6636 72.5391Z" fill="white"/>
<path d="M129.581 163.776C139.106 173.301 136.907 195.35 127.376 204.875C117.852 214.4 82.7949 210.327 73.2701 200.803C63.7454 191.278 68.6252 159.004 78.15 149.48C87.6808 139.955 120.057 154.251 129.581 163.776Z" fill="white" fill-opacity="0.5"/>
<path d="M81.5356 188.255C81.5356 188.255 70.1854 153.669 86.3974 152.584C102.609 151.506 73.9688 148.265 81.5356 188.255Z" fill="white"/>
<path d="M206.941 147.05C213.303 153.412 202.055 157.858 195.688 164.22C189.326 170.581 175.68 178.154 169.318 171.792C162.956 165.431 166.21 143.863 172.578 137.495C178.945 131.133 200.579 140.688 206.941 147.05Z" fill="white" fill-opacity="0.2"/>
<path d="M174.137 161.37C174.137 161.37 169.276 146.236 175.758 141.917C182.246 137.585 170.354 148.935 174.137 161.37Z" fill="white"/>
</svg>
