<svg width="28" height="17" viewBox="0 0 28 17" fill="none" xmlns="http://www.w3.org/2000/svg">
<rect x="0.5" y="0.5" width="27" height="16" rx="1.5" stroke="#EBEBEB"/>
<path d="M6.54447 5.28964C6.82713 4.94248 7.01893 4.47634 6.96835 4C6.55458 4.0202 6.04965 4.26805 5.75732 4.61549C5.49484 4.91302 5.26253 5.39867 5.32309 5.85504C5.78757 5.89461 6.25162 5.62707 6.54447 5.28964Z" fill="black"/>
<path d="M6.95605 5.94691C6.28151 5.90746 5.708 6.32284 5.38587 6.32284C5.06357 6.32284 4.57029 5.9668 4.03678 5.97639C3.34237 5.98641 2.69803 6.37195 2.34565 6.98514C1.62086 8.21183 2.15438 10.0314 2.8592 11.0305C3.20148 11.5248 3.61398 12.069 4.15752 12.0495C4.67107 12.0297 4.87236 11.7229 5.4966 11.7229C6.12038 11.7229 6.3017 12.0495 6.84532 12.0396C7.40908 12.0297 7.76152 11.545 8.10379 11.0503C8.49645 10.4869 8.65719 9.9428 8.6673 9.91294C8.65719 9.90304 7.58023 9.49735 7.57024 8.28085C7.56007 7.26227 8.41578 6.77777 8.45605 6.74773C7.97283 6.04593 7.2178 5.9668 6.95605 5.94691Z" fill="black"/>
<path d="M12.828 4.56709C14.294 4.56709 15.3149 5.55945 15.3149 7.00425C15.3149 8.4542 14.273 9.45171 12.7912 9.45171H11.168V11.9866H9.99517V4.56709L12.828 4.56709ZM11.168 8.48504H12.5137C13.5347 8.48504 14.1159 7.94523 14.1159 7.0094C14.1159 6.07368 13.5347 5.53892 12.5189 5.53892H11.168V8.48504Z" fill="black"/>
<path d="M15.6254 10.4469C15.6254 9.50078 16.3637 8.91981 17.6729 8.84781L19.1808 8.76043V8.34399C19.1808 7.74239 18.7671 7.38248 18.0761 7.38248C17.4214 7.38248 17.0129 7.69092 16.9136 8.1743H15.8454C15.9082 7.19732 16.7564 6.4775 18.1179 6.4775C19.4531 6.4775 20.3065 7.17163 20.3065 8.25652V11.9843H19.2226V11.0947H19.1965C18.8772 11.6963 18.1807 12.0768 17.4581 12.0768C16.3795 12.0768 15.6254 11.4186 15.6254 10.4469ZM19.1808 9.95848V9.53173L17.8246 9.61394C17.1491 9.66026 16.7669 9.95332 16.7669 10.4161C16.7669 10.8891 17.1648 11.1976 17.7723 11.1976C18.5629 11.1976 19.1808 10.6628 19.1808 9.95848Z" fill="black"/>
<path d="M21.319 13.9743V13.0745C21.4026 13.095 21.591 13.095 21.6854 13.095C22.2089 13.095 22.4917 12.8791 22.6644 12.3238C22.6644 12.3135 22.764 11.9948 22.764 11.9896L20.7744 6.57538H21.9995L23.3924 10.9767H23.4132L24.8062 6.57538H26L23.9368 12.2672C23.4658 13.5784 22.9212 14 21.7797 14C21.6854 14 21.4026 13.9897 21.319 13.9743Z" fill="black"/>
</svg>
