<svg width="36" height="24" viewBox="0 0 36 24" fill="none" xmlns="http://www.w3.org/2000/svg">
<rect width="36" height="24" rx="2" fill="black"/>
<path d="M9.52701 7.70593C9.84823 7.30414 10.0662 6.76466 10.0087 6.21338C9.53849 6.23676 8.96466 6.52361 8.63244 6.92571C8.33415 7.27005 8.07013 7.83212 8.13896 8.36029C8.66682 8.40608 9.19419 8.09644 9.52701 7.70593Z" fill="white"/>
<path d="M9.99466 8.46644C9.22808 8.42078 8.5763 8.90151 8.21022 8.90151C7.84393 8.90151 7.28334 8.48945 6.67702 8.50055C5.88785 8.51215 5.15559 8.95835 4.75512 9.66802C3.93143 11.0877 4.53775 13.1936 5.33875 14.3499C5.72774 14.9219 6.19653 15.5518 6.81424 15.5291C7.39787 15.5062 7.62663 15.1512 8.33605 15.1512C9.04496 15.1512 9.25102 15.5291 9.86883 15.5177C10.5095 15.5062 10.91 14.9454 11.299 14.3728C11.7453 13.7207 11.9279 13.091 11.9394 13.0565C11.9279 13.045 10.704 12.5755 10.6927 11.1676C10.6811 9.98875 11.6536 9.42802 11.6994 9.39325C11.1502 8.58103 10.2921 8.48945 9.99466 8.46644Z" fill="white"/>
<path d="M16.6676 6.86963C18.3337 6.86963 19.4939 8.01812 19.4939 9.69024C19.4939 11.3683 18.3099 12.5228 16.6258 12.5228H14.7811V15.4564H13.4482V6.86963H16.6676V6.86963ZM14.7811 11.404H16.3104C17.4708 11.404 18.1313 10.7793 18.1313 9.69621C18.1313 8.61326 17.4708 7.99436 16.3164 7.99436H14.7811V11.404Z" fill="white"/>
<path d="M19.8467 13.6745C19.8467 12.5795 20.6857 11.9071 22.1735 11.8238L23.8872 11.7227V11.2407C23.8872 10.5445 23.417 10.1279 22.6317 10.1279C21.8877 10.1279 21.4235 10.4849 21.3106 11.0443H20.0967C20.1681 9.91364 21.132 9.08057 22.6792 9.08057C24.1966 9.08057 25.1665 9.88391 25.1665 11.1395V15.4537H23.9347V14.4243H23.9051C23.5421 15.1205 22.7506 15.5608 21.9295 15.5608C20.7036 15.5608 19.8467 14.7991 19.8467 13.6745ZM23.8872 13.1092V12.6153L22.3459 12.7105C21.5783 12.7641 21.1439 13.1033 21.1439 13.6388C21.1439 14.1862 21.5962 14.5433 22.2865 14.5433C23.185 14.5433 23.8872 13.9244 23.8872 13.1092Z" fill="white"/>
<path d="M26.3171 17.7569V16.7155C26.4122 16.7393 26.6264 16.7393 26.7336 16.7393C27.3286 16.7393 27.65 16.4894 27.8462 15.8467C27.8462 15.8348 27.9594 15.4659 27.9594 15.4599L25.6982 9.19385H27.0905L28.6736 14.2877H28.6972L30.2803 9.19385H31.637L29.2922 15.7812C28.7569 17.2987 28.138 17.7866 26.8408 17.7866C26.7336 17.7866 26.4122 17.7747 26.3171 17.7569Z" fill="white"/>
</svg>
