<svg width="32" height="32" viewBox="0 0 32 32" fill="none" xmlns="http://www.w3.org/2000/svg">
<path d="M30 22.9973C30 23.5442 29.5935 23.9544 29.0516 23.9544H2.94839C2.40645 23.9544 2 23.5442 2 22.9973V7.9571C2 7.41019 2.40645 7 2.94839 7H29.0516C29.5935 7 30 7.41019 30 7.9571V22.9973Z" fill="#12DB55"/>
<path d="M30 22.9973C30 23.5442 29.5935 23.9544 29.0516 23.9544H2.94839C2.40645 23.9544 2 23.5442 2 22.9973V7.9571C2 7.41019 2.40645 7 2.94839 7H29.0516C29.5935 7 30 7.41019 30 7.9571V22.9973Z" fill="#3CDFC2"/>
<path d="M2 7.9571C2 7.41019 2.40645 7 2.94839 7H29.0516C29.5935 7 30 7.41019 30 7.9571V23.0429C30 23.5898 29.5935 24 29.0516 24" fill="#02B192"/>
<path d="M30 8.13945H2V13.6542H30V8.13945Z" fill="#334449"/>
<path d="M11.6195 13.6542H30V8.13945H2.31628L11.6195 13.6542Z" fill="black"/>
<path d="M30 22.9973C30 23.5442 29.5935 23.9544 29.0516 23.9544H2.94839C2.40645 23.9544 2 23.5442 2 22.9973" fill="#0CC69A"/>
<path d="M29.0516 23.9544C29.5935 23.9544 30 23.5442 30 22.9973L27.4712 22.9973L29.0516 23.9544Z" fill="#0BAF84"/>
<path d="M12.0259 16.7382C12.0259 16.9205 11.8905 17.0572 11.7098 17.0572H4.98078C4.80013 17.0572 4.66465 16.9205 4.66465 16.7382C4.66465 16.5559 4.80013 16.4191 4.98078 16.4191H11.7098C11.8905 16.4191 12.0259 16.5559 12.0259 16.7382Z" fill="#D4F9ED"/>
<path d="M12.0259 18.3789C12.0259 18.5612 11.8905 18.6979 11.7098 18.6979H4.98078C4.80013 18.6979 4.66465 18.5612 4.66465 18.3789C4.70981 18.1966 4.84529 18.0599 4.98078 18.0599H11.7098C11.8905 18.0599 12.0259 18.1966 12.0259 18.3789Z" fill="#D4F9ED"/>
<path d="M10.7163 20.0197C10.7163 20.202 10.5808 20.3387 10.4001 20.3387H4.98078C4.84529 20.3387 4.70981 20.202 4.70981 20.0197C4.70981 19.8374 4.84529 19.7006 5.02594 19.7006H10.4453C10.5808 19.7462 10.7163 19.8829 10.7163 20.0197Z" fill="#D4F9ED"/>
<path d="M20.6667 16.4191C20.6667 15.8989 21.0845 15.4772 21.6 15.4772H25.3333C25.8488 15.4772 26.2667 15.8989 26.2667 16.4191V20.1868C26.2667 20.707 25.8488 21.1287 25.3333 21.1287H21.6C21.0845 21.1287 20.6667 20.707 20.6667 20.1868V16.4191Z" fill="url(#paint0_linear_12551_169993)"/>
<defs>
<linearGradient id="paint0_linear_12551_169993" x1="23.4667" y1="15.4772" x2="25.8387" y2="22.5285" gradientUnits="userSpaceOnUse">
<stop stop-color="#D4F9ED"/>
<stop offset="1" stop-color="#8BFDD8"/>
</linearGradient>
</defs>
</svg>
