<svg width="36" height="24" viewBox="0 0 36 24" fill="none" xmlns="http://www.w3.org/2000/svg">
<rect width="36" height="24" rx="2" fill="black"/>
<g clip-path="url(#clip0_5837_12229)">
<path d="M17.2514 11.8738V15.0983H16.2285V7.1353H18.9415C19.2653 7.12854 19.5873 7.18597 19.8888 7.30429C20.1904 7.42261 20.4655 7.59947 20.6983 7.82467C20.9334 8.03619 21.1206 8.2956 21.2472 8.58547C21.3738 8.87533 21.4368 9.18894 21.4321 9.5052C21.4389 9.82315 21.3768 10.1388 21.2501 10.4305C21.1234 10.7222 20.9352 10.9831 20.6983 11.1953C20.2239 11.6476 19.6383 11.8736 18.9415 11.8732H17.2514V11.8738ZM17.2514 8.11566V10.8954H18.9669C19.155 10.9009 19.3421 10.8672 19.5164 10.7963C19.6907 10.7254 19.8483 10.6189 19.9791 10.4837C20.1091 10.3572 20.2126 10.2059 20.2832 10.0388C20.3538 9.87163 20.3902 9.69203 20.3902 9.5106C20.3902 9.32916 20.3538 9.14956 20.2832 8.98243C20.2126 8.8153 20.1091 8.66402 19.9791 8.53754C19.8499 8.39942 19.6929 8.29032 19.5184 8.21748C19.3439 8.14464 19.1559 8.10971 18.9669 8.11503H17.2514V8.11566Z" fill="white"/>
<path d="M23.7899 9.47217C24.5459 9.47217 25.1428 9.67421 25.5803 10.0783C26.0179 10.4824 26.2364 11.0364 26.236 11.7404V15.0983H25.2575V14.3422H25.2131C24.7895 14.9649 24.2261 15.2762 23.523 15.2762C22.9228 15.2762 22.4207 15.0983 22.0166 14.7425C21.8226 14.5792 21.6676 14.3747 21.5627 14.1438C21.4579 13.913 21.4059 13.6617 21.4104 13.4082C21.4104 12.8445 21.6235 12.3961 22.0496 12.0632C22.4757 11.7302 23.0446 11.5634 23.7562 11.5625C24.3636 11.5625 24.8638 11.6737 25.2569 11.8961V11.6623C25.2581 11.4894 25.2208 11.3185 25.1477 11.162C25.0746 11.0054 24.9676 10.867 24.8344 10.7569C24.5639 10.5128 24.2114 10.3796 23.847 10.3839C23.2756 10.3839 22.8235 10.6249 22.4905 11.107L21.5896 10.5396C22.0852 9.82797 22.8186 9.47217 23.7899 9.47217ZM22.4664 13.4305C22.4657 13.5607 22.4962 13.6891 22.5552 13.8052C22.6142 13.9212 22.7001 14.0215 22.8057 14.0976C23.0319 14.2756 23.3127 14.3698 23.6005 14.3644C24.0322 14.3637 24.446 14.1919 24.7512 13.8867C25.09 13.5677 25.2595 13.1935 25.2595 12.764C24.9405 12.5098 24.4957 12.3828 23.9252 12.3828C23.5097 12.3828 23.1632 12.4829 22.8857 12.6833C22.6055 12.8866 22.4664 13.1338 22.4664 13.4305Z" fill="white"/>
<path d="M31.8525 9.65015L28.4368 17.5H27.3808L28.6483 14.7534L26.4023 9.65015H27.5142L29.1376 13.564H29.1598L30.7387 9.65015H31.8525Z" fill="white"/>
<path d="M13.1175 11.1787C13.1179 10.867 13.0915 10.5558 13.0387 10.2485H8.72461V12.0104H11.1955C11.145 12.2918 11.0379 12.56 10.8809 12.7989C10.7239 13.0379 10.5201 13.2425 10.2819 13.4006V14.5442H11.7565C12.62 13.7481 13.1175 12.5708 13.1175 11.1787Z" fill="#4285F4"/>
<path d="M8.72497 15.6493C9.95948 15.6493 10.9989 15.2439 11.7569 14.545L10.2822 13.4014C9.8718 13.6796 9.34318 13.8385 8.72497 13.8385C7.53176 13.8385 6.519 13.0341 6.15684 11.9502H4.6377V13.1288C5.01845 13.8864 5.60229 14.5234 6.32403 14.9684C7.04578 15.4135 7.87703 15.6492 8.72497 15.6493Z" fill="#34A853"/>
<path d="M6.15665 11.9502C5.96519 11.3822 5.96519 10.7671 6.15665 10.1991V9.02051H4.6375C4.3172 9.65787 4.15039 10.3613 4.15039 11.0746C4.15039 11.7879 4.3172 12.4914 4.6375 13.1288L6.15665 11.9502Z" fill="#FBBC04"/>
<path d="M8.72497 8.31083C9.37735 8.30018 10.0077 8.54666 10.4798 8.99702L11.7855 7.69136C10.9576 6.91372 9.86076 6.48679 8.72497 6.50006C7.87703 6.50009 7.04578 6.73581 6.32403 7.18088C5.60229 7.62596 5.01845 8.26288 4.6377 9.02053L6.15684 10.1991C6.519 9.1152 7.53176 8.31083 8.72497 8.31083Z" fill="#EA4335"/>
</g>
<defs>
<clipPath id="clip0_5837_12229">
<rect width="27.6998" height="11" fill="white" transform="translate(4.15039 6.5)"/>
</clipPath>
</defs>
</svg>
