<svg width="28" height="17" viewBox="0 0 28 17" fill="none" xmlns="http://www.w3.org/2000/svg">
<rect x="0.5" y="0.5" width="27" height="16" rx="1.5" stroke="#EBEBEB"/>
<path d="M13.3512 8.71475V11.5457H12.465V4.55751H14.8153C15.3823 4.54637 15.9272 4.7637 16.34 5.16494C16.7528 5.53831 16.984 6.07886 16.973 6.63613C16.984 7.19898 16.7528 7.73953 16.34 8.11847C15.9272 8.51414 15.4208 8.71475 14.8208 8.71475H13.3512ZM13.3512 5.41571V7.85656H14.8373C15.1676 7.8677 15.4868 7.73396 15.7125 7.49433C16.1804 7.03737 16.1859 6.28505 15.7345 5.81137L15.7125 5.78908C15.4868 5.54388 15.1676 5.41014 14.8373 5.42128L13.3512 5.41571ZM19.0151 6.60827C19.6701 6.60827 20.1875 6.7866 20.5673 7.13768C20.9471 7.49433 21.1342 7.97916 21.1342 8.59773V11.5401H20.2866V10.877H20.248C19.8792 11.4231 19.3949 11.6962 18.7839 11.6962C18.2665 11.6962 17.8262 11.5401 17.4794 11.228C17.1381 10.9383 16.9455 10.5092 16.9565 10.0578C16.9565 9.56181 17.1436 9.17172 17.5124 8.87636C17.8812 8.58101 18.3766 8.43612 18.9931 8.43612C19.5215 8.43612 19.9508 8.53643 20.2921 8.7259V8.51971C20.2921 8.21321 20.16 7.92343 19.9288 7.72838C19.6921 7.51662 19.3894 7.39959 19.0756 7.39959C18.5802 7.39959 18.1894 7.61136 17.8977 8.03488L17.1161 7.53891C17.5399 6.92034 18.1729 6.60827 19.0151 6.60827ZM17.8702 10.0801C17.8702 10.3141 17.9803 10.5315 18.1619 10.6652C18.3601 10.8212 18.6023 10.9048 18.85 10.8993C19.2242 10.8993 19.582 10.7488 19.8462 10.4813C20.138 10.2027 20.2866 9.87388 20.2866 9.49493C20.0114 9.27203 19.6261 9.16057 19.1307 9.16057C18.7729 9.16057 18.4702 9.24973 18.228 9.42249C17.9913 9.60082 17.8702 9.81815 17.8702 10.0801ZM26 6.76431L23.0387 13.6522H22.125L23.2258 11.2448L21.2773 6.76988H22.2406L23.6442 10.2027H23.6662L25.0368 6.76988L26 6.76431Z" fill="#5F6368"/>
<path d="M9.7679 8.10176C9.7679 7.82869 9.74588 7.55563 9.70185 7.28814H5.96445V8.83178H8.10561C8.01754 9.32775 7.73132 9.77357 7.313 10.0522V11.0553H8.58999C9.33857 10.3587 9.7679 9.32775 9.7679 8.10176Z" fill="#4285F4"/>
<path d="M5.96445 12.0249C7.03228 12.0249 7.93498 11.6683 8.58999 11.0553L7.313 10.0522C6.95522 10.2974 6.49836 10.4367 5.96445 10.4367C4.92965 10.4367 4.05447 9.72899 3.74072 8.78163H2.4252V9.81815C3.09672 11.1667 4.46729 12.0249 5.96445 12.0249Z" fill="#34A853"/>
<path d="M3.74072 8.78163C3.57559 8.28566 3.57559 7.7451 3.74072 7.24356V6.21261H2.4252C2.14568 6.77042 2 7.3871 2 8.01259C2 8.63809 2.14568 9.25477 2.4252 9.81258L3.74072 8.78163Z" fill="#FBBC04"/>
<path d="M5.96445 5.58846C6.53139 5.57732 7.07631 5.79465 7.48363 6.19032L8.612 5.04791C7.89645 4.36247 6.94971 3.9891 5.96445 4.00024C4.46729 4.00024 3.09672 4.85844 2.4252 6.21261L3.74072 7.24913C4.05447 6.2962 4.92965 5.58846 5.96445 5.58846Z" fill="#EA4335"/>
</svg>
