<svg width="36" height="24" viewBox="0 0 36 24" fill="none" xmlns="http://www.w3.org/2000/svg">
<rect width="36" height="24" rx="2" fill="black"/>
<path d="M20.9982 6.61816H15.0176V17.3655H20.9982V6.61816Z" fill="#FF5F00"/>
<path d="M15.3799 12C15.379 10.965 15.6135 9.94329 16.0658 9.01229C16.5181 8.08129 17.1763 7.2654 17.9905 6.62636C16.9822 5.83382 15.7712 5.34094 14.4961 5.20408C13.2209 5.06721 11.9329 5.29187 10.7794 5.85239C9.62587 6.41291 8.65331 7.28667 7.97289 8.37379C7.29247 9.46091 6.93164 10.7175 6.93164 12C6.93164 13.2825 7.29247 14.5392 7.97289 15.6263C8.65331 16.7134 9.62587 17.5872 10.7794 18.1477C11.9329 18.7082 13.2209 18.9329 14.4961 18.796C15.7712 18.6591 16.9822 18.1663 17.9905 17.3737C17.1763 16.7347 16.5181 15.9188 16.0658 14.9878C15.6135 14.0568 15.379 13.0351 15.3799 12Z" fill="#EB001B"/>
<path d="M29.0683 12C29.0683 13.2825 28.7075 14.5391 28.0271 15.6263C27.3468 16.7134 26.3742 17.5871 25.2207 18.1477C24.0672 18.7082 22.7793 18.9329 21.5041 18.796C20.229 18.6591 19.018 18.1663 18.0098 17.3737C18.8233 16.734 19.4809 15.918 19.9331 14.9872C20.3854 14.0563 20.6203 13.0349 20.6203 12C20.6203 10.9652 20.3854 9.94378 19.9331 9.01293C19.4809 8.08207 18.8233 7.26604 18.0098 6.62636C19.018 5.83381 20.229 5.34094 21.5041 5.20407C22.7793 5.06721 24.0672 5.29188 25.2207 5.8524C26.3742 6.41293 27.3468 7.28669 28.0271 8.37381C28.7075 9.46094 29.0683 10.7176 29.0683 12Z" fill="#F79E1B"/>
<path d="M28.4048 16.2272V16.0072H28.4935V15.9623H28.2676V16.0072H28.3563V16.2272H28.4048ZM28.8435 16.2272V15.9619H28.7742L28.6946 16.1444L28.6149 15.9619H28.5456V16.2272H28.5945V16.0271L28.6692 16.1996H28.7199L28.7946 16.0267V16.2272H28.8435Z" fill="#F79E1B"/>
</svg>
