<svg width="28" height="17" viewBox="0 0 28 17" fill="none" xmlns="http://www.w3.org/2000/svg">
<rect width="28" height="17" rx="2" fill="black"/>
<path d="M17.2507 3.04883H10.7666V14.1367H17.2507V3.04883Z" fill="#FF5F00"/>
<path d="M11.1595 8.6014C11.1584 7.53355 11.4127 6.47948 11.9031 5.51897C12.3934 4.55847 13.107 3.71672 13.9898 3.05744C12.8966 2.23977 11.5837 1.73128 10.2012 1.59008C8.81868 1.44888 7.4223 1.68066 6.17166 2.25894C4.92103 2.83722 3.8666 3.73866 3.1289 4.86024C2.3912 5.98181 2 7.27825 2 8.6014C2 9.92454 2.3912 11.221 3.1289 12.3426C3.8666 13.4641 4.92103 14.3656 6.17166 14.9439C7.4223 15.5221 8.81868 15.7539 10.2012 15.6127C11.5837 15.4715 12.8966 14.963 13.9898 14.1454C13.107 13.4861 12.3935 12.6443 11.9031 11.6838C11.4127 10.7233 11.1584 9.66924 11.1595 8.6014Z" fill="#EB001B"/>
<path d="M26.0002 8.6014C26.0002 9.92452 25.6091 11.221 24.8714 12.3425C24.1337 13.4641 23.0793 14.3656 21.8287 14.9438C20.5781 15.5221 19.1818 15.7539 17.7993 15.6127C16.4168 15.4715 15.1039 14.963 14.0107 14.1454C14.8927 13.4854 15.6057 12.6435 16.096 11.6832C16.5863 10.7228 16.8411 9.66907 16.8411 8.6014C16.8411 7.53372 16.5863 6.47997 16.096 5.51962C15.6057 4.55927 14.8927 3.71738 14.0107 3.05744C15.1039 2.23977 16.4168 1.73128 17.7993 1.59008C19.1818 1.44888 20.5781 1.68067 21.8287 2.25895C23.0793 2.83724 24.1337 3.73869 24.8714 4.86026C25.6091 5.98183 26.0002 7.27827 26.0002 8.6014Z" fill="#F79E1B"/>
<path d="M25.2806 12.9627V12.7357H25.3768V12.6894H25.1318V12.7357H25.2281V12.9627H25.2806ZM25.7562 12.9627V12.689H25.6811L25.5948 12.8772L25.5084 12.689H25.4332V12.9627H25.4863V12.7562L25.5673 12.9342H25.6222L25.7032 12.7558V12.9627H25.7562Z" fill="#F79E1B"/>
</svg>
