<svg width="36" height="24" viewBox="0 0 36 24" fill="none" xmlns="http://www.w3.org/2000/svg">
<rect width="36" height="24" rx="2" fill="black"/>
<path d="M21.9018 7.82349C20.0713 7.82349 18.4355 8.77226 18.4355 10.5252C18.4355 12.5355 21.3367 12.6743 21.3367 13.6842C21.3367 14.1095 20.8494 14.4901 20.0171 14.4901C18.8358 14.4901 17.953 13.9582 17.953 13.9582L17.5753 15.7271C17.5753 15.7271 18.5923 16.1764 19.9425 16.1764C21.9438 16.1764 23.5186 15.181 23.5186 13.3981C23.5186 11.2739 20.6053 11.1392 20.6053 10.2018C20.6053 9.86872 21.0054 9.50374 21.8353 9.50374C22.7717 9.50374 23.5357 9.89056 23.5357 9.89056L23.9054 8.1821C23.9054 8.1821 23.0741 7.82349 21.9018 7.82349ZM5.15467 7.95243L5.11035 8.21031C5.11035 8.21031 5.88044 8.35125 6.57403 8.63239C7.46708 8.95477 7.53069 9.14244 7.6811 9.72536L9.32005 16.0434H11.5171L14.9018 7.95243H12.7098L10.5349 13.4535L9.64744 8.79054C9.56605 8.25686 9.15379 7.95243 8.64916 7.95243H5.15467ZM15.7832 7.95243L14.0636 16.0434H16.1539L17.8674 7.95243H15.7832ZM27.4412 7.95243C26.9372 7.95243 26.6701 8.22228 26.4741 8.69383L23.4118 16.0434H25.6038L26.0279 14.8185H28.6984L28.9562 16.0434H30.8904L29.203 7.95243H27.4412ZM27.7263 10.1384L28.376 13.1745H26.6353L27.7263 10.1384Z" fill="white"/>
</svg>
