<svg width="28" height="17" viewBox="0 0 28 17" fill="none" xmlns="http://www.w3.org/2000/svg">
<rect width="28" height="17" rx="2" fill="black"/>
<path d="M17.2834 5C15.5083 5 13.922 5.90869 13.922 7.58755C13.922 9.5129 16.7354 9.64588 16.7354 10.6131C16.7354 11.0204 16.2628 11.3849 15.4557 11.3849C14.3102 11.3849 13.4541 10.8755 13.4541 10.8755L13.0878 12.5697C13.0878 12.5697 14.074 13 15.3834 13C17.3241 13 18.8513 12.0467 18.8513 10.3391C18.8513 8.30465 16.0262 8.17562 16.0262 7.27786C16.0262 6.95883 16.4141 6.60926 17.2189 6.60926C18.127 6.60926 18.8679 6.97974 18.8679 6.97974L19.2264 5.34346C19.2264 5.34346 18.4203 5 17.2834 5ZM1.04298 5.12349L1 5.37048C1 5.37048 1.74679 5.50546 2.41939 5.77472C3.28542 6.08349 3.34711 6.26323 3.49297 6.82151L5.08233 12.8726H7.21288L10.4952 5.12349H8.36949L6.26043 10.3922L5.39981 5.92619C5.32089 5.41506 4.9211 5.12349 4.43174 5.12349H1.04298ZM11.3499 5.12349L9.6824 12.8726H11.7094L13.3711 5.12349H11.3499ZM22.6552 5.12349C22.1664 5.12349 21.9074 5.38194 21.7174 5.83357L18.7477 12.8726H20.8734L21.2847 11.6995H23.8743L24.1244 12.8726H26L24.3637 5.12349H22.6552ZM22.9317 7.21708L23.5617 10.1249H21.8737L22.9317 7.21708Z" fill="white"/>
</svg>
