<svg width="73" height="122" viewBox="0 0 73 122" fill="none" xmlns="http://www.w3.org/2000/svg">
<path fill-rule="evenodd" clip-rule="evenodd" d="M73 76.5848V4.08528C68.853 1.75123 64.5769 0.397949 60.3655 0.397949C39.2765 0.397949 0.835388 13.0029 0.835388 34.0954C0.835388 55.1878 39.2765 76.7785 60.3655 76.7785C64.5769 76.7785 68.853 76.7686 73 76.5848ZM25.4916 15.364C5.83163 15.5716 8.10835 42.0582 8.10835 42.0582C8.83925 29.0732 17.1683 24.4917 21.3819 22.174C21.9356 21.8695 22.4182 21.604 22.8032 21.3637C23.7022 20.8014 25.7629 20.0862 27.8931 19.347C33.6007 17.3662 39.806 15.2128 25.4916 15.364Z" fill="#7852FD"/>
<path fill-rule="evenodd" clip-rule="evenodd" d="M73 118.871V92.5705C65.8399 87.344 50.5881 81.3841 45.7188 86.2503C40.2485 91.7207 37.4458 110.256 42.9161 115.726C48.0961 120.906 66.424 123.279 73 118.871ZM50.4551 88.0348C41.1441 88.6576 47.6629 108.522 47.6629 108.522C44.5571 92.1078 52.0718 88.3748 53.215 87.8069C53.3099 87.7597 53.3609 87.7344 53.3582 87.7255C53.355 87.7151 53.2796 87.7268 53.1168 87.752C52.7452 87.8095 51.9182 87.9375 50.4551 88.0348Z" fill="#7852FD"/>
</svg>
