<svg width="12" height="17" viewBox="0 0 12 17" fill="none" xmlns="http://www.w3.org/2000/svg">
<path d="M11.3333 5.50033V4.16699H3.33333C2.6 4.16699 2 3.56699 2 2.83366C2 2.10033 2.6 1.50033 3.33333 1.50033H4V0.166992H3.33333C1.86667 0.166992 0.666667 1.36699 0.666667 2.83366C0.666667 4.30033 1.86667 5.50033 3.33333 5.50033H5.33333V9.50033H3.33333C1.46667 9.50033 0 10.967 0 12.8337C0 14.7003 1.46667 16.167 3.33333 16.167H4.66667V14.8337H3.33333C2.2 14.8337 1.33333 13.967 1.33333 12.8337C1.33333 11.7003 2.2 10.8337 3.33333 10.8337H11.3333V9.50033H6.66667V5.50033H11.3333Z" fill="#FFD54F"/>
</svg>
