<svg width="16" height="16" viewBox="0 0 16 16" fill="none" xmlns="http://www.w3.org/2000/svg">
<path d="M15.5 8C15.5 7.46429 15.0714 6.92857 14.5357 6.82143C11.75 6.39286 9.60714 4.25 9.17857 1.46429C9.07143 0.928571 8.53571 0.5 8 0.5C7.46429 0.5 6.92857 0.928571 6.82143 1.46429C6.39286 4.25 4.25 6.39286 1.46429 6.82143C0.928571 6.92857 0.5 7.46429 0.5 8C0.5 8.53571 0.928571 9.07143 1.46429 9.17857C4.25 9.60714 6.39286 11.75 6.82143 14.5357C6.92857 15.0714 7.46429 15.5 8 15.5C8.53571 15.5 9.07143 15.0714 9.17857 14.5357C9.60714 11.75 11.75 9.60714 14.5357 9.17857C15.0714 9.07143 15.5 8.53571 15.5 8Z" fill="black"/>
</svg>
