<svg width="20" height="20" viewBox="0 0 20 20" fill="none" xmlns="http://www.w3.org/2000/svg">
<path d="M20 10C20 9.28571 19.4286 8.57143 18.7143 8.42857C15 7.85714 12.1429 5 11.5714 1.28571C11.4286 0.571429 10.7143 0 10 0C9.28571 0 8.57143 0.571429 8.42857 1.28571C7.85714 5 5 7.85714 1.28571 8.42857C0.571429 8.57143 0 9.28571 0 10C0 10.7143 0.571429 11.4286 1.28571 11.5714C5 12.1429 7.85714 15 8.42857 18.7143C8.57143 19.4286 9.28571 20 10 20C10.7143 20 11.4286 19.4286 11.5714 18.7143C12.1429 15 15 12.1429 18.7143 11.5714C19.4286 11.4286 20 10.7143 20 10Z" fill="#636363"/>
</svg>
